<svg xmlns="http://www.w3.org/2000/svg" viewBox="0 0 603 183" fill="none">
  <path d="M172.3 140.7c-25.7 19-63 29.1-95 29.1-44.9 0-85.4-16.6-116-44.2-2.4-2.2-.3-5.2 2.6-3.5 33 19.2 73.8 30.8 115.9 30.8 28.4 0 59.7-5.9 88.4-18.1 4.3-1.9 8 2.8 4.1 5.9z" fill="#FF9900"/>
  <path d="M182.6 128.9c-3.3-4.2-21.8-2-30.1-1-2.5.3-2.9-1.9-.6-3.5 14.7-10.4 38.8-7.4 41.6-3.9 2.8 3.5-.7 27.6-14.6 39.1-2.1 1.8-4.1.8-3.2-1.5 3.2-7.8 10.2-25.1 6.9-29.2z" fill="#FF9900"/>
  <path d="M152.5 20.8V9.7c0-1.7 1.3-2.9 2.9-2.9h51.7c1.6 0 2.9 1.2 2.9 2.9v9.5c0 1.7-1.4 3.9-3.9 7.3L183 51.2c9.1-.2 18.7 1.1 26.9 5.7 1.9 1.1 2.4 2.6 2.5 4.2v11.8c0 1.6-1.8 3.5-3.6 2.5-15.2-8-35.3-8.8-52.1.1-1.7.9-3.5-.9-3.5-2.5V61.5c0-1.8 0-4.8 1.9-7.5l24.6-35.2h-21.4c-1.7 0-2.9-1.2-2.9-2.9l.1 4.9zM54.3 78.5H40.7c-1.5-.1-2.7-1.2-2.8-2.7V9.9c0-1.7 1.4-3 3.1-3h12.7c1.5.1 2.7 1.2 2.9 2.8v8.6h.3c3.3-8.8 9.6-12.9 18-12.9 8.6 0 14 4.1 17.8 12.9 3.3-8.8 10.8-12.9 18.8-12.9 5.7 0 11.9 2.3 15.7 7.6 4.3 5.9 3.4 14.5 3.4 22l-.1 41.1c0 1.7-1.4 3.1-3.1 3.1H115c-1.7-.1-3-1.5-3-3.1V36.8c0-3-.3-10.5-.4-13.3-.3-4.8-2.6-6.1-5.1-6.1-2.1 0-4.3 1.4-5.2 3.6-.9 2.2-.8 5.9-.8 8.8V75.5c0 1.7-1.4 3.1-3.1 3.1H84.7c-1.7-.1-3-1.5-3-3.1l-.1-38.7c0-8.1 1.3-20.1-5.5-20.1-6.9 0-6.6 11.7-6.6 20.1V75.5c-.1 1.7-1.5 3.1-3.2 3h-.0zM234.8 5.6c18.9 0 29.1 16.3 29.1 37 0 20-11.4 35.8-29.1 35.8-18.5 0-28.5-16.3-28.5-36.6 0-20.5 10.2-36.2 28.5-36.2zm.1 13.4c-9.4 0-9.9 12.8-9.9 20.7 0 7.9-.1 24.9 9.8 24.9 9.8 0 10.2-13.7 10.2-22.1 0-5.5-.2-12.1-2-17.2-1.5-4.4-4.5-6.3-8.1-6.3h0zM286.5 78.5h-13.7c-1.7-.1-3-1.5-3-3.1l-.1-65.8c.1-1.6 1.5-2.8 3.1-2.8H286c1.5.1 2.7 1.1 3 2.5v10.1h.3c3.9-9.5 9.3-14 18.9-14 6.2 0 12.3 2.3 16.2 8.5 3.6 5.8 3.6 15.5 3.6 22.5V75.7c-.2 1.5-1.5 2.7-3.1 2.7h-13.8c-1.5-.1-2.7-1.3-2.9-2.7V37c0-8 .9-19.7-5.6-19.7-2.2 0-4.2 1.4-5.2 3.6-1.3 2.8-1.5 5.6-1.5 8.8V75.4c-.1 1.7-1.5 3.1-3.4 3.1h0zM372.5 43.1c0 5.5.1 10.1-2.7 15-2.3 4-5.9 6.5-9.9 6.5-5.5 0-8.7-4.2-8.7-10.4 0-12.2 11-14.4 21.4-14.4v3.3h-.1zm14.5 35.2c-.9.8-2.3.9-3.3.3-4.7-3.9-5.5-5.7-8.1-9.4-7.7 7.9-13.2 10.2-23.2 10.2-11.9 0-21.1-7.3-21.1-21.9 0-11.4 6.2-19.2 15-22.9 7.7-3.3 18.3-3.9 26.5-4.8V28c0-3.9.3-8.5-2-11.8-2-3-5.8-4.2-9.2-4.2-6.2 0-11.8 3.2-13.2 9.8-.3 1.5-1.4 2.9-2.9 3l-13.3-1.4c-1.4-.3-2.9-1.4-2.5-3.5 3-16 17.5-20.9 30.5-20.9 6.6 0 15.3 1.8 20.5 6.8 6.6 6.2 6 14.4 6 23.4v21.2c0 6.4 2.6 9.2 5.1 12.6 0.9 1.2.9 2.8-.1 3.7l-5.7 5.5v.2h.1zM48.7 43.1c0 5.5.1 10.1-2.7 15-2.3 4-5.9 6.5-9.9 6.5-5.5 0-8.7-4.2-8.7-10.4 0-12.2 11-14.4 21.4-14.4l-.1 3.3h0zm14.5 35.2c-.9.8-2.3.9-3.3.3-4.7-3.9-5.5-5.7-8.1-9.4-7.7 7.9-13.2 10.2-23.2 10.2C16.7 79.4 7.5 72.1 7.5 57.5c0-11.4 6.2-19.2 15-22.9 7.7-3.3 18.3-3.9 26.5-4.8V28c0-3.9.3-8.5-2-11.8-2-3-5.8-4.2-9.2-4.2-6.2 0-11.8 3.2-13.2 9.8-.3 1.5-1.4 2.9-2.9 3l-13.3-1.4c-1.4-.3-2.9-1.4-2.5-3.5C9 4.1 23.5-.8 36.5-.8c6.6 0 15.3 1.8 20.5 6.8 6.6 6.2 6 14.4 6 23.4v21.2c0 6.4 2.6 9.2 5.1 12.6.9 1.2.9 2.8-.1 3.7l-5.5 5.5v.1l.7-.2z" fill="#221F1F"/>
</svg>
