<svg xmlns="http://www.w3.org/2000/svg" viewBox="0 0 109.5 124.5" fill="none">
  <path d="M74.7 14.8c-.1 0-.2 0-.3.1-.1 0-.2.1-.3.1-4.4.6-9 1-13.4 1.4C58.9 7.4 54.1 2 47.2 2c-.2 0-.4 0-.6.1C44.7 1.5 42.7 1 40.8 1 33.2 1 29.5 9.8 28.3 18.4c-4.5.4-8.6.8-11.7 1.1-3.6.3-3.7.4-4.2 3.8L5.1 115.7l73.7 13.8 39.6-9.5L97.3 18.6c-.2-3.5-3.3-4.5-22.6-3.8zM62.8 17c-3.2.3-6.7.6-10.2.9.9-3.7 2.8-7.4 5.9-9.1 1.2 2.4 2.7 5.3 4.3 8.2zm-15.7-2c-.5 0-1 .1-1.4.2 1.3-4.8 3.8-9.5 8.3-10.7-1.6 2.7-3.3 6.2-4.2 9.7-.9.3-1.8.6-2.7.8zm17 2.5c1.4 2.5 2.7 5.2 3.8 7.7-4.4.6-9.3 1.1-14.2 1.7 1.1-4 3.3-8.4 6.4-10.2 1.4.3 2.7.6 4 .8z" fill="#95BF47"/>
  <path d="M97.3 18.6c-.2-3.5-3.3-4.5-22.6-3.8-.1 0-.2 0-.3.1-.1 0-.2.1-.3.1-4.4.6-9 1-13.4 1.4C58.9 7.4 54.1 2 47.2 2c-.2 0-.4 0-.6.1C44.7 1.5 42.7 1 40.8 1 33.2 1 29.5 9.8 28.3 18.4c-4.5.4-8.6.8-11.7 1.1-3.6.3-3.7.4-4.2 3.8L5.1 115.7l73.7 13.8 39.6-9.5L97.3 18.6zM60.9 20.8c1.4.3 2.7.6 4 .8 1.4 2.5 2.7 5.2 3.8 7.7-4.4.6-9.3 1.1-14.2 1.7 1.1-4 3.3-8.4 6.4-10.2z" fill="#5E8E3E"/>
  <path d="M47.2 2c-.2 0-.4 0-.6.1C44.7 1.5 42.7 1 40.8 1 33.2 1 29.5 9.8 28.3 18.4c-4.5.4-8.6.8-11.7 1.1-3.6.3-3.7.4-4.2 3.8L5.1 115.7l73.7 13.8V2.8c-3.3-.2-8 .3-31.6-.8z" fill="#95BF47"/>
  <path d="M78.8 129.5L5.1 115.7l11.3-92.3c.5-3.4.6-3.5 4.2-3.8 3.1-.3 7.2-.7 11.7-1.1 1.2-8.6 4.9-17.4 12.5-17.4 1.9 0 3.9.5 5.8 1.1.2-.1.4-.1.6-.1 6.9 0 11.7 5.4 13.5 14.4 4.4-.4 9-.8 13.4-1.4.1 0 .2-.1.3-.1.1 0 .2-.1.3-.1 19.3-.7 22.4.3 22.6 3.8l21.1 91.5-43.6 19z" fill="white"/>
  <path d="M67 45.6l-5.1 15.8s-4.5-2.4-10-2.4c-8.1 0-8.5 5.1-8.5 6.4 0 7 18.3 9.7 18.3 26.1 0 12.9-8.2 21.2-19.2 21.2-13.2 0-20-8.2-20-8.2l3.5-11.8s7 6 12.9 6c3.9 0 5.4-3 5.4-5.2 0-9.1-15-9.5-15-24.6 0-12.7 9.1-24.9 27.5-24.9 7.1 0 10.2 2.6 10.2 2.6z" fill="#5E8E3E"/>
</svg>
